# xmcd
#
# Track frame offsets:
# 150
# 13302
# 26902
# 45042
# 60275
# 77970
# 95985
# 109860
# 127832
# 144575
# 162067
#
# Disc length: 2345 seconds
#
#
# Revision: 0
# Processed by: cddbd v1.5.2PL0 Copyright (c) Steve Scherf et al.
# Submitted via: FreeRIP 2.945 
#
DISCID=8909270b
DTITLE=Harry Luge - Ride, Ride, Ride
DYEAR=2005
DGENRE=Country
TTITLE0=Drinking in a Dry County
TTITLE1=Ride, Ride, Ride
TTITLE2=Hell and Back
TTITLE3=Sara says
TTITLE4=Change My Ways
TTITLE5=More Behind the picture
TTITLE6=Aint gonna tear down you and me
TTITLE7=Too Close to Home
TTITLE8=The Distance
TTITLE9=Wastin all my Time
TTITLE10=Faster I go
EXTD=
EXTT0=
EXTT1=
EXTT2=
EXTT3=
EXTT4=
EXTT5=
EXTT6=
EXTT7=
EXTT8=
EXTT9=
EXTT10=
PLAYORDER=
